<svg id="visual" viewBox="0 0 900 900" width="900" height="900" xmlns="http://www.w3.org/2000/svg" xmlns:xlink="http://www.w3.org/1999/xlink" version="1.1"><rect x="0" y="0" width="900" height="900" fill="#e5c78b"></rect><defs><linearGradient id="grad1_0" x1="0%" y1="100%" x2="100%" y2="0%"><stop offset="30%" stop-color="#007cff" stop-opacity="1"></stop><stop offset="70%" stop-color="#007cff" stop-opacity="1"></stop></linearGradient></defs><defs><linearGradient id="grad1_1" x1="0%" y1="100%" x2="100%" y2="0%"><stop offset="30%" stop-color="#007cff" stop-opacity="1"></stop><stop offset="70%" stop-color="#be6dde" stop-opacity="1"></stop></linearGradient></defs><defs><linearGradient id="grad1_2" x1="0%" y1="100%" x2="100%" y2="0%"><stop offset="30%" stop-color="#f46fb1" stop-opacity="1"></stop><stop offset="70%" stop-color="#be6dde" stop-opacity="1"></stop></linearGradient></defs><defs><linearGradient id="grad1_3" x1="0%" y1="100%" x2="100%" y2="0%"><stop offset="30%" stop-color="#f46fb1" stop-opacity="1"></stop><stop offset="70%" stop-color="#ff878c" stop-opacity="1"></stop></linearGradient></defs><defs><linearGradient id="grad1_4" x1="0%" y1="100%" x2="100%" y2="0%"><stop offset="30%" stop-color="#f9a87d" stop-opacity="1"></stop><stop offset="70%" stop-color="#ff878c" stop-opacity="1"></stop></linearGradient></defs><defs><linearGradient id="grad1_5" x1="0%" y1="100%" x2="100%" y2="0%"><stop offset="30%" stop-color="#f9a87d" stop-opacity="1"></stop><stop offset="70%" stop-color="#e5c78b" stop-opacity="1"></stop></linearGradient></defs><defs><linearGradient id="grad2_0" x1="0%" y1="100%" x2="100%" y2="0%"><stop offset="30%" stop-color="#007cff" stop-opacity="1"></stop><stop offset="70%" stop-color="#007cff" stop-opacity="1"></stop></linearGradient></defs><defs><linearGradient id="grad2_1" x1="0%" y1="100%" x2="100%" y2="0%"><stop offset="30%" stop-color="#be6dde" stop-opacity="1"></stop><stop offset="70%" stop-color="#007cff" stop-opacity="1"></stop></linearGradient></defs><defs><linearGradient id="grad2_2" x1="0%" y1="100%" x2="100%" y2="0%"><stop offset="30%" stop-color="#be6dde" stop-opacity="1"></stop><stop offset="70%" stop-color="#f46fb1" stop-opacity="1"></stop></linearGradient></defs><defs><linearGradient id="grad2_3" x1="0%" y1="100%" x2="100%" y2="0%"><stop offset="30%" stop-color="#ff878c" stop-opacity="1"></stop><stop offset="70%" stop-color="#f46fb1" stop-opacity="1"></stop></linearGradient></defs><defs><linearGradient id="grad2_4" x1="0%" y1="100%" x2="100%" y2="0%"><stop offset="30%" stop-color="#ff878c" stop-opacity="1"></stop><stop offset="70%" stop-color="#f9a87d" stop-opacity="1"></stop></linearGradient></defs><defs><linearGradient id="grad2_5" x1="0%" y1="100%" x2="100%" y2="0%"><stop offset="30%" stop-color="#e5c78b" stop-opacity="1"></stop><stop offset="70%" stop-color="#f9a87d" stop-opacity="1"></stop></linearGradient></defs><g transform="translate(900, 900)"><path d="M-477.3 0C-471.5 -95 -465.7 -190.1 -413.4 -238.6C-361 -287.2 -262.1 -289.3 -185.5 -321.3C-108.9 -353.3 -54.4 -415.3 0 -477.3L0 0Z" fill="#efb881"></path><path d="M-397.7 0C-392.9 -79.2 -388.1 -158.4 -344.5 -198.9C-300.8 -239.3 -218.5 -241.1 -154.6 -267.7C-90.7 -294.4 -45.4 -346.1 0 -397.7L0 0Z" fill="#ff9881"></path><path d="M-318.2 0C-314.3 -63.4 -310.5 -126.7 -275.6 -159.1C-240.7 -191.5 -174.8 -192.8 -123.7 -214.2C-72.6 -235.5 -36.3 -276.9 0 -318.2L0 0Z" fill="#ff799c"></path><path d="M-238.6 0C-235.7 -47.5 -232.8 -95 -206.7 -119.3C-180.5 -143.6 -131.1 -144.6 -92.8 -160.6C-54.4 -176.7 -27.2 -207.7 0 -238.6L0 0Z" fill="#df6bc8"></path><path d="M-159.1 0C-157.2 -31.7 -155.2 -63.4 -137.8 -79.5C-120.3 -95.7 -87.4 -96.4 -61.8 -107.1C-36.3 -117.8 -18.1 -138.4 0 -159.1L0 0Z" fill="#8a74f2"></path><path d="M-79.5 0C-78.6 -15.8 -77.6 -31.7 -68.9 -39.8C-60.2 -47.9 -43.7 -48.2 -30.9 -53.5C-18.1 -58.9 -9.1 -69.2 0 -79.5L0 0Z" fill="#007cff"></path></g><g transform="translate(0, 0)"><path d="M477.3 0C466.4 86.2 455.4 172.3 413.4 238.6C371.3 305 298.1 351.5 224 388C149.9 424.5 75 450.9 0 477.3L0 0Z" fill="#efb881"></path><path d="M397.7 0C388.6 71.8 379.5 143.6 344.5 198.9C309.4 254.2 248.4 292.9 186.7 323.3C124.9 353.7 62.5 375.7 0 397.7L0 0Z" fill="#ff9881"></path><path d="M318.2 0C310.9 57.4 303.6 114.9 275.6 159.1C247.5 203.3 198.7 234.3 149.3 258.7C99.9 283 50 300.6 0 318.2L0 0Z" fill="#ff799c"></path><path d="M238.6 0C233.2 43.1 227.7 86.2 206.7 119.3C185.6 152.5 149 175.8 112 194C75 212.2 37.5 225.4 0 238.6L0 0Z" fill="#df6bc8"></path><path d="M159.1 0C155.5 28.7 151.8 57.4 137.8 79.5C123.8 101.7 99.4 117.2 74.7 129.3C50 141.5 25 150.3 0 159.1L0 0Z" fill="#8a74f2"></path><path d="M79.5 0C77.7 14.4 75.9 28.7 68.9 39.8C61.9 50.8 49.7 58.6 37.3 64.7C25 70.7 12.5 75.1 0 79.5L0 0Z" fill="#007cff"></path></g></svg>